<mxfile host="Electron" modified="2024-06-29T08:09:12.404Z" agent="Mozilla/5.0 (Windows NT 10.0; Win64; x64) AppleWebKit/537.36 (KHTML, like Gecko) draw.io/24.5.3 Chrome/124.0.6367.207 Electron/30.0.6 Safari/537.36" etag="wBAJ8NtnN1ZNzVbPsr4F" version="24.5.3" type="device">
  <diagram name="第 1 页" id="YLkwh1-Y1CM5E2V4HNq3">
    <mxGraphModel dx="1036" dy="614" grid="0" gridSize="10" guides="1" tooltips="1" connect="1" arrows="1" fold="1" page="0" pageScale="1" pageWidth="827" pageHeight="1169" math="0" shadow="0">
      <root>
        <mxCell id="0" />
        <mxCell id="1" parent="0" />
        <mxCell id="oBIcf1tNMKM2DOu713Vm-1" value="探索地图" style="rounded=0;whiteSpace=wrap;html=1;" vertex="1" parent="1">
          <mxGeometry x="152" y="230" width="106" height="66" as="geometry" />
        </mxCell>
        <mxCell id="oBIcf1tNMKM2DOu713Vm-10" value="" style="edgeStyle=orthogonalEdgeStyle;rounded=0;orthogonalLoop=1;jettySize=auto;html=1;" edge="1" parent="1" source="oBIcf1tNMKM2DOu713Vm-2" target="oBIcf1tNMKM2DOu713Vm-9">
          <mxGeometry relative="1" as="geometry" />
        </mxCell>
        <mxCell id="oBIcf1tNMKM2DOu713Vm-2" value="物品收集" style="rounded=0;whiteSpace=wrap;html=1;" vertex="1" parent="1">
          <mxGeometry x="330" y="365" width="120" height="60" as="geometry" />
        </mxCell>
        <mxCell id="oBIcf1tNMKM2DOu713Vm-4" value="" style="endArrow=classic;html=1;rounded=0;exitX=1;exitY=1;exitDx=0;exitDy=0;entryX=0;entryY=0;entryDx=0;entryDy=0;" edge="1" parent="1" source="oBIcf1tNMKM2DOu713Vm-1" target="oBIcf1tNMKM2DOu713Vm-2">
          <mxGeometry width="50" height="50" relative="1" as="geometry">
            <mxPoint x="260" y="306" as="sourcePoint" />
            <mxPoint x="321" y="364" as="targetPoint" />
          </mxGeometry>
        </mxCell>
        <mxCell id="oBIcf1tNMKM2DOu713Vm-5" value="获取碎片化信息" style="rounded=0;whiteSpace=wrap;html=1;" vertex="1" parent="1">
          <mxGeometry x="522" y="239" width="120" height="60" as="geometry" />
        </mxCell>
        <mxCell id="oBIcf1tNMKM2DOu713Vm-6" value="" style="endArrow=classic;html=1;rounded=0;" edge="1" parent="1">
          <mxGeometry width="50" height="50" relative="1" as="geometry">
            <mxPoint x="451" y="363" as="sourcePoint" />
            <mxPoint x="521" y="299" as="targetPoint" />
          </mxGeometry>
        </mxCell>
        <mxCell id="oBIcf1tNMKM2DOu713Vm-7" value="推动支线发展" style="rounded=0;whiteSpace=wrap;html=1;" vertex="1" parent="1">
          <mxGeometry x="519" y="487" width="120" height="60" as="geometry" />
        </mxCell>
        <mxCell id="oBIcf1tNMKM2DOu713Vm-8" value="" style="endArrow=classic;html=1;rounded=0;exitX=1;exitY=1;exitDx=0;exitDy=0;" edge="1" parent="1" source="oBIcf1tNMKM2DOu713Vm-2">
          <mxGeometry width="50" height="50" relative="1" as="geometry">
            <mxPoint x="457" y="429" as="sourcePoint" />
            <mxPoint x="518" y="487" as="targetPoint" />
          </mxGeometry>
        </mxCell>
        <mxCell id="oBIcf1tNMKM2DOu713Vm-11" style="edgeStyle=orthogonalEdgeStyle;rounded=0;orthogonalLoop=1;jettySize=auto;html=1;" edge="1" parent="1" source="oBIcf1tNMKM2DOu713Vm-9">
          <mxGeometry relative="1" as="geometry">
            <mxPoint x="197.5999755859375" y="301.3999938964844" as="targetPoint" />
          </mxGeometry>
        </mxCell>
        <mxCell id="oBIcf1tNMKM2DOu713Vm-9" value="锁钥物品收集" style="rounded=0;whiteSpace=wrap;html=1;" vertex="1" parent="1">
          <mxGeometry x="330" y="487" width="120" height="60" as="geometry" />
        </mxCell>
        <mxCell id="oBIcf1tNMKM2DOu713Vm-12" value="解锁探索区域" style="text;html=1;align=center;verticalAlign=middle;resizable=0;points=[];autosize=1;strokeColor=none;fillColor=none;" vertex="1" parent="1">
          <mxGeometry x="110" y="391" width="90" height="26" as="geometry" />
        </mxCell>
        <mxCell id="oBIcf1tNMKM2DOu713Vm-25" style="edgeStyle=orthogonalEdgeStyle;rounded=0;orthogonalLoop=1;jettySize=auto;html=1;entryX=0.5;entryY=0;entryDx=0;entryDy=0;" edge="1" parent="1" source="oBIcf1tNMKM2DOu713Vm-13" target="oBIcf1tNMKM2DOu713Vm-1">
          <mxGeometry relative="1" as="geometry">
            <Array as="points">
              <mxPoint x="745" y="210" />
              <mxPoint x="205" y="210" />
            </Array>
          </mxGeometry>
        </mxCell>
        <mxCell id="oBIcf1tNMKM2DOu713Vm-13" value="推动主线剧情" style="rounded=0;whiteSpace=wrap;html=1;" vertex="1" parent="1">
          <mxGeometry x="694" y="361" width="120" height="60" as="geometry" />
        </mxCell>
        <mxCell id="oBIcf1tNMKM2DOu713Vm-15" value="" style="endArrow=classic;startArrow=classic;html=1;rounded=0;entryX=0;entryY=1;entryDx=0;entryDy=0;exitX=1;exitY=0;exitDx=0;exitDy=0;" edge="1" parent="1" source="oBIcf1tNMKM2DOu713Vm-7" target="oBIcf1tNMKM2DOu713Vm-13">
          <mxGeometry width="50" height="50" relative="1" as="geometry">
            <mxPoint x="639" y="482" as="sourcePoint" />
            <mxPoint x="689" y="432" as="targetPoint" />
          </mxGeometry>
        </mxCell>
        <mxCell id="oBIcf1tNMKM2DOu713Vm-16" value="相互补足" style="text;html=1;align=center;verticalAlign=middle;resizable=0;points=[];autosize=1;strokeColor=none;fillColor=none;" vertex="1" parent="1">
          <mxGeometry x="652" y="458" width="66" height="26" as="geometry" />
        </mxCell>
        <mxCell id="oBIcf1tNMKM2DOu713Vm-17" value="" style="endArrow=classic;html=1;rounded=0;entryX=0;entryY=0;entryDx=0;entryDy=0;exitX=1;exitY=1;exitDx=0;exitDy=0;" edge="1" parent="1" source="oBIcf1tNMKM2DOu713Vm-5" target="oBIcf1tNMKM2DOu713Vm-13">
          <mxGeometry width="50" height="50" relative="1" as="geometry">
            <mxPoint x="665" y="212" as="sourcePoint" />
            <mxPoint x="715" y="162" as="targetPoint" />
          </mxGeometry>
        </mxCell>
      </root>
    </mxGraphModel>
  </diagram>
</mxfile>
